<svg xmlns="http://www.w3.org/2000/svg" xmlns:xlink="http://www.w3.org/1999/xlink" width="44.301" height="41.17"><defs><linearGradient id="d"><stop offset="0" stop-color="#f57900"/><stop offset="1" stop-color="#fcaf3e"/></linearGradient><linearGradient id="a"><stop offset="0" stop-opacity="0"/><stop offset=".5"/><stop offset="1" stop-opacity="0"/></linearGradient><linearGradient id="b"><stop offset="0"/><stop offset="1" stop-opacity="0"/></linearGradient><linearGradient id="e"><stop offset="0" stop-color="#d3d7cf"/><stop offset="1" stop-color="#eeeeec"/></linearGradient><linearGradient id="k"><stop offset="0" stop-color="#3465a4"/><stop offset="1" stop-color="#729fcf"/></linearGradient><linearGradient id="c"><stop offset="0" stop-color="#fff"/><stop offset="1" stop-color="#fff" stop-opacity=".469"/></linearGradient><linearGradient x1="32.085" y1="-14.402" x2="32.085" y2="-5.563" id="l" xlink:href="#a" gradientUnits="userSpaceOnUse" gradientTransform="matrix(.979 0 0 .715 -8.501 52.113)"/><radialGradient cx="51.438" cy="-12.203" r="2.172" fx="51.438" fy="-12.203" id="m" xlink:href="#b" gradientUnits="userSpaceOnUse" gradientTransform="matrix(1.958 0 0 1.457 -59.018 62.738)"/><radialGradient cx="51.438" cy="-12.203" r="2.172" fx="51.438" fy="-12.203" id="n" xlink:href="#b" gradientUnits="userSpaceOnUse" gradientTransform="matrix(-1.958 0 0 1.457 110.018 62.738)"/><linearGradient x1="9.5" y1="16.264" x2="9.5" y2="13.409" id="q" xlink:href="#c" gradientUnits="userSpaceOnUse" gradientTransform="matrix(1.261 0 0 1.206 -7.473 -4.946)"/><linearGradient x1="23.069" y1="6.799" x2="23.069" y2="12.403" id="p" xlink:href="#d" gradientUnits="userSpaceOnUse" gradientTransform="matrix(1.245 0 0 1.271 -7.074 -5.302)"/><linearGradient x1="24.926" y1="40" x2="24.926" y2="19.539" id="o" xlink:href="#e" gradientUnits="userSpaceOnUse" gradientTransform="matrix(1.245 0 0 1.177 -7.074 -3.983)"/><linearGradient id="f"><stop offset="0" stop-color="#3465a4"/><stop offset="1" stop-color="#3465a4" stop-opacity="0"/></linearGradient><linearGradient x1="22.958" y1="13.434" x2="22.958" y2="27.138" xlink:href="#f" gradientUnits="userSpaceOnUse" gradientTransform="matrix(1.763 0 0 -1.732 -16.443 56.989)"/><linearGradient x1="36.202" y1="37.667" x2="30.035" y2="41.842" xlink:href="#g" gradientUnits="userSpaceOnUse"/><linearGradient x1="33.358" y1="37.386" x2="33.358" y2="52.806" xlink:href="#h" gradientUnits="userSpaceOnUse"/><linearGradient x1="38.046" y1="44.886" x2="33.233" y2="51.47" xlink:href="#i" gradientUnits="userSpaceOnUse"/><linearGradient x1="35.198" y1="46.094" x2="33.666" y2="50.416" xlink:href="#j" gradientUnits="userSpaceOnUse"/><linearGradient id="i"><stop offset="0" stop-color="#6f716c"/><stop offset="1" stop-color="#888a85" stop-opacity="0"/></linearGradient><linearGradient id="j"><stop offset="0" stop-color="#d3d7cf"/><stop offset="1" stop-color="#d3d7cf" stop-opacity="0"/></linearGradient><linearGradient id="h"><stop offset="0" stop-color="#fff"/><stop offset="1" stop-color="#fff" stop-opacity="0"/></linearGradient><linearGradient id="g"><stop offset="0" stop-color="#888a85"/><stop offset="1" stop-color="#888a85" stop-opacity="0"/></linearGradient><linearGradient x1="9.5" y1="16.264" x2="9.5" y2="13.409" xlink:href="#c" gradientUnits="userSpaceOnUse" gradientTransform="translate(5 -6)"/><linearGradient x1="23.069" y1="6.799" x2="23.069" y2="12.403" xlink:href="#k" gradientUnits="userSpaceOnUse" gradientTransform="translate(5 -6)"/><linearGradient x1="24.926" y1="40" x2="24.926" y2="19.539" xlink:href="#e" gradientUnits="userSpaceOnUse" gradientTransform="translate(5 -6)"/><linearGradient x1="32.085" y1="-14.402" x2="32.085" y2="-5.563" xlink:href="#a" gradientUnits="userSpaceOnUse" gradientTransform="matrix(.979 0 0 .715 -8.501 52.113)"/><radialGradient cx="51.438" cy="-12.203" r="2.172" fx="51.438" fy="-12.203" xlink:href="#b" gradientUnits="userSpaceOnUse" gradientTransform="matrix(1.958 0 0 1.457 -59.018 62.738)"/><radialGradient cx="51.438" cy="-12.203" r="2.172" fx="51.438" fy="-12.203" xlink:href="#b" gradientUnits="userSpaceOnUse" gradientTransform="matrix(-1.958 0 0 1.457 110.018 62.738)"/><linearGradient x1="35.198" y1="46.094" x2="33.666" y2="50.416" xlink:href="#j" gradientUnits="userSpaceOnUse"/><linearGradient x1="38.046" y1="44.886" x2="33.233" y2="51.47" xlink:href="#i" gradientUnits="userSpaceOnUse"/><linearGradient x1="33.358" y1="37.386" x2="33.358" y2="52.806" xlink:href="#h" gradientUnits="userSpaceOnUse"/><linearGradient x1="36.202" y1="37.667" x2="30.035" y2="41.842" xlink:href="#g" gradientUnits="userSpaceOnUse"/></defs><g transform="translate(-1.794 -5)"><g transform="matrix(1.084 0 0 1.362 -3.703 -19.379)" fill-rule="evenodd"><rect width="32.357" height="6.323" x="9.322" y="41.809" opacity=".3" fill="url(#l)"/><path d="m41.678 41.8v6.327c2.344-.024 4.252-1.421 4.252-3.152s-1.908-3.151-4.252-3.175z" opacity=".3" fill="url(#m)"/><path d="m9.322 41.8v6.327c-2.344-.024-4.252-1.421-4.252-3.152s1.908-3.151 4.252-3.175z" opacity=".3" fill="url(#n)"/></g><rect width="41.073" height="35.892" rx="2" ry="2" x="3.505" y="6.608" fill="url(#o)" stroke="#888a85"/><path d="m3.505 12.528v-4.486c0-1.408 1.11-2.542 2.489-2.542h36.094c1.379 0 2.489 1.134 2.489 2.542v4.486" fill="url(#p)" stroke="#ce5c00"/><rect width="39.077" height="34.97" rx="1.511" ry="1.511" x="4.502" y="6.51" opacity=".8" stroke="url(#q)" fill="none"/><path d="m31.527 38.288l-4.497.008c-.115.002-.212-.027-.293-.083-.077-.055-.149-.145-.215-.267l-3.402-6.358-1.802 2.283c-.17.206-.145.452-.145.452l.006 3.631c-.003.106-.032.191-.093.255-.06.063-.14.094-.245.096l-4.054.007c-.102-.001-.184-.032-.245-.095s-.092-.149-.094-.254l-.007-4.078c-.001-.261.039-.303.126-.418l9.285-11.808c.099-.123.195-.212.295-.269.099-.056.215-.083.347-.084l4.329-.008c.102.006.168.047.193.123.027.077.008.152-.057.229l-4.892 6.189 5.63 10.096c.049.076.058.152.028.228-.03.076-.096.118-.198.123m-15.119-23.493c.003-.107.033-.192.094-.255s.143-.096.245-.097l4.054-.007c.105.001.185.034.245.096.061.063.091.148.094.255l.003 1.572.015 8.706c-.003.107-.032.191-.093.255-.061.063-.14.096-.245.098l-4.054.007c-.102-.001-.185-.034-.245-.097-.061-.063-.091-.147-.094-.254l-.018-10.278z" fill="#4d4d4d"/></g></svg>
