<?xml version="1.0" encoding="UTF-8" standalone="no"?>
<!-- Created with Inkscape (http://www.inkscape.org/) -->

<svg
   xmlns:dc="http://purl.org/dc/elements/1.1/"
   xmlns:cc="http://creativecommons.org/ns#"
   xmlns:rdf="http://www.w3.org/1999/02/22-rdf-syntax-ns#"
   xmlns:svg="http://www.w3.org/2000/svg"
   xmlns="http://www.w3.org/2000/svg"
   xmlns:sodipodi="http://sodipodi.sourceforge.net/DTD/sodipodi-0.dtd"
   xmlns:inkscape="http://www.inkscape.org/namespaces/inkscape"
   width="360.07901"
   height="92.977371"
   id="svg3196"
   version="1.1"
   inkscape:version="0.48.3.1 r9886"
   sodipodi:docname="New document 5">
  <defs
     id="defs3198" />
  <sodipodi:namedview
     id="base"
     pagecolor="#ffffff"
     bordercolor="#666666"
     borderopacity="1.0"
     inkscape:pageopacity="0.0"
     inkscape:pageshadow="2"
     inkscape:zoom="0.35"
     inkscape:cx="180.0395"
     inkscape:cy="46.488687"
     inkscape:document-units="px"
     inkscape:current-layer="layer1"
     showgrid="false"
     fit-margin-top="0"
     fit-margin-left="0"
     fit-margin-right="0"
     fit-margin-bottom="0"
     inkscape:window-width="1295"
     inkscape:window-height="744"
     inkscape:window-x="65"
     inkscape:window-y="24"
     inkscape:window-maximized="1" />
  <metadata
     id="metadata3201">
    <rdf:RDF>
      <cc:Work
         rdf:about="">
        <dc:format>image/svg+xml</dc:format>
        <dc:type
           rdf:resource="http://purl.org/dc/dcmitype/StillImage" />
        <dc:title></dc:title>
      </cc:Work>
    </rdf:RDF>
  </metadata>
  <g
     inkscape:label="Layer 1"
     inkscape:groupmode="layer"
     id="layer1"
     transform="translate(-194.9605,-485.8735)">
    <g
       id="g3024"
       transform="matrix(1.25,0,0,-1.25,280.6245,563.01087)"
       style="fill:#888888;fill-opacity:1;stroke:none"
       inkscape:export-filename="/home/icoloma/Desktop/koliseo-800x150.png"
       inkscape:export-xdpi="143.21678"
       inkscape:export-ydpi="143.21678">
      <path
         d="m 0,0 c -1.934,0.001 -3.563,0.472 -4.906,1.416 -1.334,0.941 -2.289,2.329 -2.885,4.159 -0.354,1.134 -0.602,2.363 -0.738,3.696 -0.137,1.335 -0.207,3.073 -0.203,5.228 -0.012,2.154 0.052,3.898 0.185,5.23 0.131,1.333 0.375,2.567 0.727,3.698 0.588,1.833 1.539,3.226 2.869,4.175 1.34,0.944 2.969,1.424 4.9,1.432 C 1.871,29.033 3.51,28.558 4.842,27.619 6.178,26.675 7.143,25.284 7.727,23.454 8.084,22.324 8.332,21.09 8.467,19.759 8.605,18.427 8.676,16.684 8.67,14.528 8.682,12.374 8.619,10.636 8.486,9.3 8.354,7.967 8.109,6.737 7.758,5.602 7.18,3.77 6.221,2.379 4.887,1.432 3.559,0.484 1.922,0.008 0,0 m 0.021,-12.672 c 5.346,0.027 9.918,1.287 13.735,3.781 3.808,2.495 6.469,6.113 7.969,10.864 0.562,1.849 0.982,3.767 1.248,5.766 0.267,1.998 0.398,4.271 0.384,6.815 0.004,2.55 -0.134,4.818 -0.408,6.814 -0.271,1.998 -0.699,3.92 -1.267,5.768 -1.516,4.74 -4.19,8.354 -8.006,10.835 -3.826,2.482 -8.403,3.727 -13.748,3.735 -5.35,-0.027 -9.928,-1.287 -13.744,-3.782 -3.809,-2.495 -6.469,-6.117 -7.971,-10.862 -0.563,-1.85 -0.981,-3.774 -1.248,-5.772 -0.266,-1.998 -0.389,-4.267 -0.385,-6.816 0.004,-2.544 0.135,-4.817 0.408,-6.814 0.274,-1.998 0.699,-3.914 1.268,-5.762 1.517,-4.746 4.189,-8.355 8.008,-10.836 3.826,-2.481 8.408,-3.726 13.757,-3.734"
         style="fill:#888888;fill-opacity:1;fill-rule:evenodd;stroke:none"
         id="path3026"
         inkscape:connector-curvature="0" />
    </g>
    <g
       id="g3028"
       transform="matrix(1.25,0,0,-1.25,342.14788,578.07187)"
       style="fill:#888888;fill-opacity:1;stroke:none"
       inkscape:export-filename="/home/icoloma/Desktop/koliseo-800x150.png"
       inkscape:export-xdpi="143.21678"
       inkscape:export-ydpi="143.21678">
      <path
         d="m 0,0 c 0.311,0 0.553,0.102 0.74,0.295 0.186,0.193 0.285,0.451 0.285,0.78 l -0.017,10.64 c -0.002,0.328 -0.102,0.586 -0.289,0.777 -0.188,0.194 -0.43,0.289 -0.74,0.298 l -2.178,-0.004 c -1.494,-0.02 -2.6,0.359 -3.301,1.133 -0.711,0.779 -1.059,2.044 -1.063,3.8 l -0.093,54.917 c 0,0.329 -0.094,0.587 -0.28,0.78 -0.185,0.192 -0.437,0.292 -0.75,0.295 L -20.104,73.69 c -0.312,-0.004 -0.556,-0.105 -0.742,-0.298 -0.185,-0.194 -0.287,-0.452 -0.287,-0.781 l 0.098,-56.099 c -0.041,-5.721 1.174,-9.915 3.623,-12.581 2.461,-2.669 6.426,-3.981 11.92,-3.941 L 0,0 z"
         style="fill:#888888;fill-opacity:1;fill-rule:evenodd;stroke:none"
         id="path3030"
         inkscape:connector-curvature="0" />
    </g>
    <g
       id="g3032"
       transform="matrix(1.25,0,0,-1.25,366.9135,577.22475)"
       style="fill:#888888;fill-opacity:1;stroke:none"
       inkscape:export-filename="/home/icoloma/Desktop/koliseo-800x150.png"
       inkscape:export-xdpi="143.21678"
       inkscape:export-ydpi="143.21678">
      <path
         d="M 0,0 C 0.322,0.005 0.566,0.102 0.75,0.294 0.938,0.488 1.037,0.751 1.037,1.075 L 0.951,50.938 c 0,0.328 -0.101,0.585 -0.289,0.778 -0.185,0.193 -0.43,0.294 -0.75,0.297 l -12.41,-0.021 c -0.313,-0.005 -0.565,-0.106 -0.75,-0.3 -0.188,-0.193 -0.277,-0.451 -0.285,-0.779 l 0.086,-49.862 c 0.009,-0.324 0.099,-0.587 0.287,-0.78 0.185,-0.193 0.439,-0.289 0.752,-0.292 L 0,0 z m -0.104,60.3 c 0.323,0.01 0.567,0.107 0.75,0.299 0.188,0.193 0.288,0.452 0.288,0.78 l -0.02,10.626 c 0,0.329 -0.101,0.587 -0.287,0.78 -0.186,0.193 -0.432,0.293 -0.752,0.296 l -12.41,-0.021 c -0.313,-0.005 -0.565,-0.105 -0.75,-0.299 -0.186,-0.193 -0.276,-0.452 -0.285,-0.781 l 0.019,-10.626 c 0.01,-0.328 0.1,-0.586 0.287,-0.779 0.186,-0.192 0.438,-0.287 0.75,-0.297 l 12.41,0.022 z"
         style="fill:#888888;fill-opacity:1;fill-rule:evenodd;stroke:none"
         id="path3034"
         inkscape:connector-curvature="0" />
    </g>
    <g
       id="g3036"
       transform="matrix(1.25,0,0,-1.25,402.59713,578.642)"
       style="fill:#888888;fill-opacity:1;stroke:none"
       inkscape:export-filename="/home/icoloma/Desktop/koliseo-800x150.png"
       inkscape:export-xdpi="143.21678"
       inkscape:export-ydpi="143.21678">
      <path
         d="m 0,0 c 7.18,0.091 12.678,1.743 16.494,4.956 3.817,3.213 5.758,7.517 5.83,12.915 0.035,4.397 -1.269,7.967 -3.922,10.719 -2.646,2.75 -6.9,4.437 -12.756,5.058 l -5.492,0.639 c -2.783,0.263 -4.658,0.745 -5.613,1.453 -0.955,0.708 -1.404,1.653 -1.338,2.836 -0.01,1.31 0.51,2.349 1.555,3.122 1.053,0.772 2.631,1.169 4.756,1.19 2.617,-0.029 5.105,-0.441 7.451,-1.235 2.346,-0.798 4.381,-1.775 6.121,-2.937 0.262,-0.162 0.516,-0.236 0.76,-0.214 0.252,0.022 0.478,0.167 0.691,0.431 l 5.774,7.425 c 0.201,0.277 0.287,0.558 0.259,0.846 -0.035,0.289 -0.15,0.544 -0.363,0.766 -2.357,1.862 -5.252,3.386 -8.713,4.576 -3.453,1.189 -7.31,1.796 -11.586,1.832 -6.562,-0.068 -11.623,-1.575 -15.178,-4.524 -3.562,-2.949 -5.353,-7.003 -5.386,-12.164 0.025,-4.687 1.441,-8.374 4.236,-11.057 2.789,-2.68 6.834,-4.29 12.141,-4.832 L 1.314,21.168 C 4.15,20.904 6.066,20.396 7.063,19.648 8.066,18.896 8.533,17.899 8.469,16.665 8.48,15.188 7.848,13.999 6.576,13.099 5.295,12.199 3.348,11.731 0.705,11.704 c -2.621,0.01 -5.271,0.514 -7.939,1.508 -2.661,0.988 -5.125,2.377 -7.387,4.166 -0.535,0.429 -1.025,0.428 -1.453,-0.002 l -6.709,-7.862 c -0.203,-0.218 -0.311,-0.474 -0.311,-0.749 0,-0.278 0.11,-0.532 0.315,-0.754 C -20.4,5.804 -17.316,3.929 -13.527,2.39 -9.736,0.854 -5.221,0.058 0,0"
         style="fill:#888888;fill-opacity:1;fill-rule:evenodd;stroke:none"
         id="path3038"
         inkscape:connector-curvature="0" />
    </g>
    <g
       id="g3040"
       transform="matrix(1.25,0,0,-1.25,452.55312,537.72887)"
       style="fill:#888888;fill-opacity:1;stroke:none"
       inkscape:export-filename="/home/icoloma/Desktop/koliseo-800x150.png"
       inkscape:export-xdpi="143.21678"
       inkscape:export-ydpi="143.21678">
      <path
         d="m 0,0 c -0.412,-0.002 -0.625,0.219 -0.625,0.648 0.006,0.796 0.049,1.51 0.139,2.137 0.091,0.626 0.218,1.204 0.377,1.735 0.578,1.796 1.605,3.192 3.054,4.193 1.457,1.001 3.229,1.508 5.321,1.528 2.084,-0.013 3.865,-0.513 5.316,-1.51 1.461,-0.996 2.486,-2.389 3.08,-4.182 0.151,-0.53 0.279,-1.109 0.373,-1.735 0.094,-0.626 0.147,-1.339 0.149,-2.136 0,-0.43 -0.204,-0.649 -0.623,-0.651 L 0,0 z m 8.955,-32.646 c 4.625,0.039 8.738,0.838 12.328,2.395 3.6,1.557 6.594,3.669 8.983,6.336 0.211,0.228 0.312,0.478 0.302,0.753 -0.015,0.28 -0.152,0.526 -0.406,0.753 l -6.842,6.655 c -0.215,0.263 -0.441,0.386 -0.685,0.362 -0.246,-0.021 -0.506,-0.14 -0.768,-0.365 -1.431,-1.421 -3.084,-2.545 -4.963,-3.371 -1.871,-0.826 -4.047,-1.252 -6.517,-1.273 -2.617,-0.004 -4.819,0.578 -6.617,1.736 -1.799,1.158 -3.041,2.867 -3.747,5.131 -0.314,0.862 -0.519,1.83 -0.63,2.907 0,0.43 0.212,0.643 0.625,0.645 l 30.336,0.051 c 0.361,0.005 0.64,0.103 0.832,0.296 0.201,0.193 0.296,0.455 0.302,0.78 -0.013,4.301 -0.162,7.642 -0.455,10.016 -0.299,2.374 -0.707,4.375 -1.234,5.995 -1.485,4.605 -4.07,8.175 -7.772,10.717 -3.689,2.542 -8.324,3.828 -13.89,3.858 -5.381,-0.04 -9.934,-1.331 -13.668,-3.878 -3.733,-2.548 -6.342,-6.169 -7.834,-10.876 -0.522,-1.597 -0.924,-3.393 -1.207,-5.399 -0.291,-2.008 -0.43,-4.363 -0.436,-7.08 0.014,-2.662 0.188,-4.987 0.512,-6.979 0.322,-1.997 0.748,-3.788 1.273,-5.381 1.485,-4.705 4.123,-8.336 7.916,-10.903 3.784,-2.564 8.541,-3.861 14.262,-3.881"
         style="fill:#888888;fill-opacity:1;fill-rule:evenodd;stroke:none"
         id="path3042"
         inkscape:connector-curvature="0" />
    </g>
    <g
       id="g3044"
       transform="matrix(1.25,0,0,-1.25,525.8295,562.58975)"
       style="fill:#888888;fill-opacity:1;stroke:none"
       inkscape:export-filename="/home/icoloma/Desktop/koliseo-800x150.png"
       inkscape:export-xdpi="143.21678"
       inkscape:export-ydpi="143.21678">
      <path
         d="m 0,0 c -1.924,0.001 -3.561,0.472 -4.896,1.415 -1.334,0.943 -2.299,2.33 -2.883,4.16 -0.356,1.134 -0.602,2.363 -0.741,3.695 -0.136,1.335 -0.209,3.074 -0.203,5.228 -0.011,2.156 0.053,3.898 0.186,5.231 0.133,1.332 0.375,2.567 0.728,3.698 0.577,1.833 1.536,3.226 2.868,4.175 1.334,0.943 2.968,1.424 4.89,1.432 C 1.883,29.033 3.52,28.558 4.854,27.619 6.188,26.675 7.145,25.284 7.738,23.454 8.096,22.324 8.34,21.09 8.479,19.758 8.613,18.426 8.686,16.684 8.682,14.529 8.691,12.374 8.627,10.635 8.496,9.299 8.363,7.967 8.121,6.737 7.768,5.602 7.182,3.77 6.23,2.38 4.898,1.433 3.566,0.483 1.932,0.008 0,0 m 0.021,-12.673 c 5.348,0.027 9.928,1.288 13.745,3.782 3.808,2.495 6.466,6.113 7.968,10.863 0.563,1.849 0.983,3.768 1.248,5.767 0.266,1.997 0.399,4.273 0.385,6.815 0.006,2.55 -0.135,4.817 -0.408,6.815 -0.271,1.997 -0.699,3.919 -1.268,5.767 -1.517,4.74 -4.189,8.354 -8.005,10.835 -3.827,2.482 -8.409,3.727 -13.758,3.735 -5.338,-0.027 -9.918,-1.287 -13.737,-3.782 -3.806,-2.495 -6.464,-6.117 -7.968,-10.862 -0.563,-1.85 -0.981,-3.774 -1.248,-5.773 -0.266,-1.998 -0.387,-4.266 -0.383,-6.815 0.004,-2.544 0.135,-4.818 0.406,-6.814 0.273,-1.998 0.699,-3.915 1.268,-5.763 1.519,-4.745 4.189,-8.354 8.007,-10.835 3.827,-2.481 8.409,-3.725 13.748,-3.735"
         style="fill:#888888;fill-opacity:1;fill-rule:evenodd;stroke:none"
         id="path3046"
         inkscape:connector-curvature="0" />
    </g>
    <g
       id="g3048"
       transform="matrix(1.25,0,0,-1.25,252.81925,577.42012)"
       style="fill:#888888;fill-opacity:1;stroke:none"
       inkscape:export-filename="/home/icoloma/Desktop/koliseo-800x150.png"
       inkscape:export-xdpi="143.21678"
       inkscape:export-ydpi="143.21678">
      <path
         d="m 0,0 -13.768,-0.024 c -0.353,-0.005 -0.65,0.083 -0.896,0.253 -0.236,0.169 -0.455,0.445 -0.658,0.818 l -10.416,19.464 -5.516,-6.991 c -0.521,-0.631 -0.445,-1.385 -0.445,-1.385 L -31.68,1.018 c -0.008,-0.325 -0.099,-0.586 -0.285,-0.781 -0.185,-0.192 -0.43,-0.289 -0.75,-0.294 l -12.41,-0.021 c -0.313,0.004 -0.564,0.099 -0.75,0.292 -0.188,0.193 -0.281,0.456 -0.289,0.779 l -0.022,12.484 c -0.002,0.8 0.118,0.929 0.387,1.279 l 28.426,36.15 c 0.303,0.376 0.598,0.649 0.902,0.824 0.303,0.172 0.657,0.255 1.063,0.256 l 13.252,0.023 c 0.312,-0.017 0.515,-0.144 0.592,-0.376 0.084,-0.237 0.025,-0.464 -0.176,-0.7 L -16.717,31.984 0.521,1.074 C 0.672,0.842 0.699,0.609 0.607,0.377 0.514,0.145 0.313,0.017 0,0 m -46.287,71.924 c 0.01,0.328 0.101,0.587 0.287,0.781 0.186,0.193 0.437,0.294 0.75,0.298 l 12.41,0.021 c 0.32,-0.003 0.565,-0.103 0.75,-0.295 0.188,-0.193 0.279,-0.452 0.289,-0.78 l 0.008,-4.814 0.045,-26.653 c -0.008,-0.329 -0.098,-0.586 -0.285,-0.78 -0.186,-0.193 -0.428,-0.294 -0.75,-0.3 l -12.41,-0.021 c -0.311,0.004 -0.565,0.104 -0.75,0.297 -0.188,0.193 -0.28,0.45 -0.289,0.779 l -0.055,31.467 z"
         style="fill:#888888;fill-opacity:1;fill-rule:nonzero;stroke:none"
         id="path3050"
         inkscape:connector-curvature="0" />
    </g>
  </g>
</svg>
