<svg xmlns="http://www.w3.org/2000/svg" width="360.656" height="131.257"><g transform="translate(-194.383 -447.594)" fill="#fff"><path d="M280.625 563.011c-2.417-.001-4.454-.59-6.132-1.77-1.667-1.176-2.861-2.911-3.606-5.199-.443-1.417-.752-2.954-.922-4.62-.171-1.669-.259-3.841-.254-6.535-.015-2.692.065-4.873.231-6.538.164-1.666.469-3.209.909-4.622.735-2.291 1.924-4.032 3.586-5.219 1.675-1.18 3.711-1.78 6.125-1.79 2.402.001 4.451.595 6.116 1.769 1.67 1.18 2.876 2.919 3.606 5.206.446 1.412.756 2.955.925 4.619.172 1.665.261 3.844.254 6.539.015 2.692-.064 4.865-.23 6.535-.165 1.666-.471 3.204-.91 4.623-.723 2.29-1.921 4.029-3.589 5.213-1.66 1.185-3.706 1.78-6.109 1.79m.026 15.84c6.683-.034 12.397-1.609 17.169-4.726 4.76-3.119 8.086-7.641 9.961-13.58.703-2.311 1.228-4.709 1.56-7.207.334-2.498.498-5.339.48-8.519.005-3.188-.168-6.022-.51-8.518-.339-2.498-.874-4.9-1.584-7.21-1.895-5.925-5.238-10.442-10.008-13.544-4.782-3.103-10.504-4.659-17.185-4.669-6.688.034-12.41 1.609-17.18 4.728-4.761 3.119-8.086 7.646-9.964 13.578-.704 2.313-1.226 4.718-1.56 7.215-.333 2.498-.486 5.334-.481 8.52.005 3.18.169 6.021.51 8.518.343 2.498.874 4.893 1.585 7.202 1.896 5.933 5.236 10.444 10.01 13.545 4.782 3.101 10.51 4.657 17.196 4.668" fill-rule="evenodd"/><path d="M342.148 578.072c.389 0 .691-.128.925-.369.232-.241.356-.564.356-.975l-.021-13.3c-.003-.41-.128-.732-.361-.971-.235-.242-.537-.361-.925-.372l-2.723.005c-1.867.025-3.25-.449-4.126-1.416-.889-.974-1.324-2.555-1.329-4.75l-.116-68.646c0-.411-.117-.734-.35-.975-.231-.24-.546-.365-.938-.369l-15.522.026c-.39.005-.695.131-.927.372-.231.242-.359.565-.359.976l.122 70.124c-.051 7.151 1.467 12.394 4.529 15.726 3.076 3.336 8.033 4.976 14.9 4.926l6.865-.013z" fill-rule="evenodd"/><path d="M366.913 577.225c.403-.006.707-.128.938-.367.235-.242.359-.571.359-.976l-.107-62.329c0-.41-.126-.731-.361-.973-.231-.241-.537-.367-.938-.371l-15.512.026c-.391.006-.706.133-.938.375-.235.241-.346.564-.356.974l.107 62.328c.011.405.124.734.359.975.231.241.549.361.94.365l15.51-.026zm-.13-75.375c.404-.013.709-.134.938-.374.235-.241.36-.565.36-.975l-.025-13.282c0-.411-.126-.734-.359-.975-.232-.241-.54-.366-.94-.37l-15.512.026c-.391.006-.706.131-.938.374-.232.241-.345.565-.356.976l.024 13.282c.013.41.125.732.359.974.232.24.547.359.938.371l15.512-.027z" fill-rule="evenodd"/><path d="M402.597 578.642c8.975-.114 15.848-2.179 20.617-6.195 4.771-4.016 7.197-9.396 7.287-16.144.044-5.496-1.586-9.959-4.902-13.399-3.308-3.438-8.625-5.546-15.945-6.322l-6.865-.799c-3.479-.329-5.823-.931-7.016-1.816-1.194-.885-1.755-2.066-1.673-3.545-.013-1.638.637-2.936 1.944-3.902 1.316-.965 3.289-1.461 5.945-1.487 3.271.036 6.381.551 9.314 1.544 2.933.998 5.476 2.219 7.651 3.671.328.203.645.295.95.268.315-.027.597-.209.864-.539l7.218-9.281c.251-.346.359-.698.324-1.057-.044-.361-.188-.68-.454-.958-2.946-2.328-6.565-4.232-10.891-5.72-4.316-1.486-9.137-2.245-14.482-2.29-8.203.085-14.529 1.969-18.973 5.655-4.452 3.686-6.691 8.754-6.732 15.205.031 5.859 1.801 10.468 5.295 13.821 3.486 3.35 8.543 5.362 15.176 6.04l6.991.791c3.545.33 5.94.965 7.186 1.9 1.254.94 1.837 2.186 1.757 3.729.014 1.846-.776 3.332-2.366 4.457-1.601 1.125-4.035 1.71-7.339 1.744-3.276-.013-6.589-.643-9.924-1.885-3.326-1.235-6.406-2.971-9.234-5.208-.669-.536-1.281-.535-1.816.003l-8.386 9.828c-.254.273-.389.593-.389.936 0 .348.138.665.394.943 2.974 2.759 6.829 5.103 11.565 7.026 4.739 1.92 10.382 2.915 16.909 2.988" fill-rule="evenodd"/><path d="M452.553 537.729c-.515.003-.781-.274-.781-.81.007-.995.061-1.887.174-2.671.114-.782.273-1.505.471-2.169.722-2.245 2.006-3.99 3.817-5.241 1.821-1.251 4.036-1.885 6.651-1.91 2.605.016 4.831.641 6.645 1.887 1.826 1.245 3.108 2.986 3.85 5.228.189.663.349 1.386.466 2.169.117.782.184 1.674.186 2.67 0 .537-.255.811-.779.814l-20.701.034zm11.194 40.808c5.781-.049 10.922-1.047 15.41-2.994 4.5-1.946 8.242-4.586 11.229-7.92.264-.285.39-.597.378-.941-.019-.35-.19-.657-.508-.941l-8.553-8.319c-.269-.329-.551-.483-.856-.453-.307.026-.633.175-.96.456-1.789 1.776-3.855 3.181-6.204 4.214-2.339 1.032-5.059 1.565-8.146 1.591-3.271.005-6.024-.722-8.271-2.17-2.249-1.447-3.801-3.584-4.684-6.414-.393-1.077-.649-2.288-.787-3.634 0-.537.265-.804.781-.806l37.92-.064c.451-.006.8-.129 1.04-.37.251-.241.37-.569.378-.975-.016-5.376-.203-9.553-.569-12.52-.374-2.968-.884-5.469-1.542-7.494-1.856-5.756-5.088-10.219-9.715-13.396-4.611-3.177-10.405-4.785-17.363-4.822-6.726.05-12.417 1.664-17.085 4.848-4.666 3.185-7.927 7.711-9.793 13.595-.653 1.996-1.155 4.241-1.509 6.749-.364 2.51-.537 5.454-.545 8.85.018 3.327.235 6.234.64 8.724.403 2.496.935 4.735 1.591 6.726 1.856 5.881 5.154 10.42 9.895 13.629 4.73 3.205 10.676 4.826 17.828 4.851" fill-rule="evenodd"/><path d="M525.83 562.59c-2.405-.001-4.451-.59-6.12-1.769-1.667-1.179-2.874-2.913-3.604-5.2-.445-1.417-.752-2.954-.926-4.619-.17-1.669-.261-3.842-.254-6.535-.014-2.695.066-4.873.232-6.539.166-1.665.469-3.209.91-4.622.721-2.291 1.92-4.032 3.585-5.219 1.667-1.179 3.71-1.78 6.112-1.79 2.417.001 4.464.595 6.131 1.769 1.667 1.18 2.864 2.919 3.605 5.206.447 1.412.752 2.955.926 4.62.168 1.665.259 3.842.254 6.536.011 2.694-.069 4.867-.232 6.538-.166 1.665-.469 3.202-.91 4.621-.732 2.29-1.922 4.028-3.588 5.211-1.665 1.187-3.707 1.781-6.122 1.791m.026 15.841c6.685-.034 12.41-1.61 17.181-4.728 4.76-3.119 8.082-7.641 9.96-13.579.704-2.311 1.229-4.71 1.56-7.209.333-2.496.499-5.341.481-8.519.007-3.188-.169-6.021-.51-8.519-.339-2.496-.874-4.899-1.585-7.209-1.896-5.925-5.236-10.442-10.006-13.544-4.784-3.103-10.511-4.659-17.197-4.669-6.673.034-12.397 1.609-17.171 4.728-4.758 3.119-8.08 7.646-9.96 13.578-.704 2.313-1.226 4.718-1.56 7.216-.333 2.498-.484 5.332-.479 8.519.005 3.18.169 6.022.508 8.518.341 2.498.874 4.894 1.585 7.204 1.899 5.931 5.236 10.442 10.009 13.544 4.784 3.101 10.511 4.656 17.185 4.669" fill-rule="evenodd"/><path d="M252.819 577.42l-17.21.03c-.441.006-.813-.104-1.12-.316-.295-.211-.569-.556-.823-1.022l-13.02-24.33-6.895 8.739c-.651.789-.556 1.731-.556 1.731l.024 13.896c-.01.406-.124.732-.356.976-.231.24-.537.361-.938.367l-15.512.026c-.391-.005-.705-.124-.938-.365-.235-.241-.351-.57-.361-.974l-.027-15.605c-.003-1 .147-1.161.484-1.599l35.532-45.188c.379-.47.747-.811 1.127-1.03.379-.215.821-.319 1.329-.32l16.565-.029c.39.021.644.18.74.47.105.296.031.58-.22.875l-18.721 23.686 21.547 38.638c.189.29.222.581.107.871-.116.29-.367.45-.759.471m-57.859-89.905c.013-.41.126-.734.359-.976.232-.241.546-.367.938-.372l15.512-.026c.4.004.706.129.938.369.235.241.349.565.361.975l.01 6.018.056 33.316c-.01.411-.122.732-.356.975-.232.241-.535.367-.938.375l-15.512.026c-.389-.005-.706-.13-.938-.371-.235-.241-.35-.563-.361-.974l-.069-39.334z"/><text style="line-height:125%;-inkscape-font-specification:Myriad Pro" x="192.103" y="475.994" font-size="40" letter-spacing="0" word-spacing="0" font-family="Myriad Pro"><tspan x="192.103" y="475.994" fill="#fff">powered by</tspan></text></g></svg>
